<?xml version="1.0" encoding="iso-8859-1"?>
<!-- Generator: Adobe Illustrator 16.0.0, SVG Export Plug-In . SVG Version: 6.00 Build 0)  -->
<!DOCTYPE svg PUBLIC "-//W3C//DTD SVG 1.1//EN" "http://www.w3.org/Graphics/SVG/1.1/DTD/svg11.dtd">
<svg xmlns="http://www.w3.org/2000/svg" xmlns:xlink="http://www.w3.org/1999/xlink" version="1.1" id="Capa_1" x="0px" y="0px" width="512px" height="512px" viewBox="0 0 36.75 36.75" style="enable-background:new 0 0 36.75 36.75;" xml:space="preserve">
<g>
	<path d="M20.102,5.708l-0.193,9.296h-3.017l-0.24-9.296H20.102z M16.891,17.15h3.017v2.556h-3.017V17.15z M18.375,0   C11.402,0,5.75,5.652,5.75,12.625c0,14.625,12.625,24.125,12.625,24.125S31,25.5,31,12.625C31,5.652,25.348,0,18.375,0z    M18.375,21.239c-4.852,0-8.781-3.933-8.781-8.781s3.931-8.781,8.781-8.781c4.85,0,8.781,3.933,8.781,8.781   S23.227,21.239,18.375,21.239z" fill="#013e88"/>
</g>
<g>
</g>
<g>
</g>
<g>
</g>
<g>
</g>
<g>
</g>
<g>
</g>
<g>
</g>
<g>
</g>
<g>
</g>
<g>
</g>
<g>
</g>
<g>
</g>
<g>
</g>
<g>
</g>
<g>
</g>
</svg>
