<svg id="Calque_1" data-name="Calque 1" xmlns="http://www.w3.org/2000/svg" viewBox="0 0 30.89 28.08"><defs><style>.cls-1{fill:#fff;}</style></defs><title>Sans titre - 2</title><path class="cls-1" d="M0.56,11.11c0-.18,0-0.36,0-0.54a14,14,0,0,1,.55-3.13A11.7,11.7,0,0,1,2.33,4.65c0.1-.16.22-0.31,0.32-0.47l0.06-.1,0,0c0,0.13,0,.26,0,0.38a1.21,1.21,0,0,0,.82,1.09,5.83,5.83,0,0,0,.68.19C4.51,5.83,4.52,5.84,4.4,6A9.81,9.81,0,0,0,3.2,9.26,13.46,13.46,0,0,0,3,12a22.64,22.64,0,0,0,.36,3.24,11.73,11.73,0,0,0,1.46,3.82c0.51,0.89,1,1.77,1.55,2.65A14.59,14.59,0,0,1,7.7,24.63a10.17,10.17,0,0,1,.44,2.2v0.06l0.68-.13,2.38-.38a10.71,10.71,0,0,1,1.88-.12c0.51,0,1,.07,1.53.09s1,0.06,1.44,0c0.88,0,1.76-.13,2.64-0.21a12.93,12.93,0,0,0,2.88-.56,10.21,10.21,0,0,0,3.19-1.79,19.74,19.74,0,0,0,2.73-2.74c0.4-.48.78-1,1.17-1.46A0.23,0.23,0,0,1,29,19.55l0.22,0.14a1.62,1.62,0,0,0,1.56.19c0.21-.08.41-0.18,0.63-0.27l0,0.1a14.92,14.92,0,0,1-1.72,2.66,16.48,16.48,0,0,1-5.1,4.29,16.17,16.17,0,0,1-4.64,1.64,18.47,18.47,0,0,1-3.73.32c-0.55,0-1.1,0-1.64-.06s-1.37,0-2.05,0c-0.53,0-1.06.07-1.58,0.13a13.64,13.64,0,0,0-2,.4l-1.63.42c-0.35.1-.7,0.23-1.05,0.31A10.54,10.54,0,0,1,5.16,30c-0.31,0-.63,0-0.94.06H4.11l0.2-.18a5.08,5.08,0,0,0,1.06-1.24,3.29,3.29,0,0,0,.42-1.85,7.11,7.11,0,0,0-.72-2.55,23.84,23.84,0,0,0-1.26-2.27C3.19,20.88,2.57,19.81,2,18.7A13.19,13.19,0,0,1,.85,15.08c-0.1-.59-0.16-1.18-0.21-1.78,0-.43,0-0.85-0.06-1.28,0,0,0-.08,0-0.12V11.11Z" transform="translate(-0.56 -1.96)"/><path class="cls-1" d="M18.89,14.34a4,4,0,0,1,.22-1.07v0a1.6,1.6,0,0,1,.73-1,11.94,11.94,0,0,1,1.9-1.11,47.14,47.14,0,0,1,4.63-1.92,0.15,0.15,0,0,1,.12,0,3.11,3.11,0,0,1,.78.81,1,1,0,0,1-.09,1.3,2,2,0,0,1-.37.35,6.68,6.68,0,0,1-.84.52c-0.63.31-1.28,0.59-1.92,0.89a10.27,10.27,0,0,0-1.12.6,0.84,0.84,0,0,0-.43,1.13,3.17,3.17,0,0,0,.56,1.13c0.39,0.56.87,1.06,1.31,1.58,0.3,0.35.59,0.71,0.87,1.07a1.3,1.3,0,0,1,.26.57,1,1,0,0,1-.21.83,2.35,2.35,0,0,1-1.36.85,0.3,0.3,0,0,1-.21-0.05,2.07,2.07,0,0,1-.35-0.28C22.92,20,22.46,19.51,22,19q-1-1.15-2-2.32a5.33,5.33,0,0,1-.91-1.41A2.29,2.29,0,0,1,18.89,14.34Z" transform="translate(-0.56 -1.96)"/><path class="cls-1" d="M19,11.39a2.22,2.22,0,0,1-1.12-.3A9.16,9.16,0,0,1,17,10.56a1.19,1.19,0,0,1-.31-0.37,5.13,5.13,0,0,1-.48-1.34,20.33,20.33,0,0,1-.43-2.4q-0.14-1.13-.25-2.27c-0.05-.51-0.08-1-0.12-1.53a0.15,0.15,0,0,1,.07-0.15,3.07,3.07,0,0,1,1-.51,1,1,0,0,1,1.1.41,3,3,0,0,1,.44,1,13.63,13.63,0,0,1,.3,1.66,15,15,0,0,0,.33,2c0,0.1.07,0.2,0.1,0.3a0.79,0.79,0,0,0,.72.54,3.16,3.16,0,0,0,1.4-.2,20.48,20.48,0,0,0,1.91-.83c0.42-.19.85-0.36,1.27-0.54a1.27,1.27,0,0,1,.68-0.08,1,1,0,0,1,.69.45,2.31,2.31,0,0,1,.39,1c0,0.12,0,.24,0,0.36a0.39,0.39,0,0,1-.18.38,4.36,4.36,0,0,1-.41.26c-0.71.36-1.42,0.71-2.13,1.06s-1.65.78-2.48,1.15a5.06,5.06,0,0,1-1.37.41Z" transform="translate(-0.56 -1.96)"/><path class="cls-1" d="M15.64,9a6.27,6.27,0,0,1-.13,1.3,1.06,1.06,0,0,1-.26.48c-0.22.23-.42,0.47-0.65,0.7a2.26,2.26,0,0,1-1.43.63,7.93,7.93,0,0,1-2-.12l-2.43-.4a20.49,20.49,0,0,1-2.14-.42A0.57,0.57,0,0,1,6,10.53,2.35,2.35,0,0,1,6.1,9.35a1,1,0,0,1,1-.77,7.84,7.84,0,0,1,1.08.08C8.91,8.76,9.62,8.89,10.32,9a3.76,3.76,0,0,0,1.59-.07,2.49,2.49,0,0,0,.52-0.24,0.71,0.71,0,0,0,.3-0.61,5.27,5.27,0,0,0-.06-1.25c-0.1-.76-0.21-1.51-0.3-2.27a3.62,3.62,0,0,1,.09-1.45,1,1,0,0,1,.82-0.78,2.17,2.17,0,0,1,.93.08l0.39,0.12a0.15,0.15,0,0,1,.08.09c0.18,0.89.36,1.78,0.52,2.68,0.12,0.65.21,1.31,0.29,2S15.59,8.41,15.64,9Z" transform="translate(-0.56 -1.96)"/><path class="cls-1" d="M26.1,16.85a4.47,4.47,0,0,1-.54-0.14,2.78,2.78,0,0,1-1.4-1.16,0.93,0.93,0,0,1,.15-1.27,2.46,2.46,0,0,1,1.34-.67,2.12,2.12,0,0,1,.94,0,1.21,1.21,0,0,1,.93,1.11,2.06,2.06,0,0,1-.83,1.9,0.85,0.85,0,0,1-.58.18v0Z" transform="translate(-0.56 -1.96)"/><path class="cls-1" d="M19.49,4.88A2.72,2.72,0,0,1,19.65,4a1.29,1.29,0,0,1,1.7-.84,2.09,2.09,0,0,1,1.37,1.31,0.93,0.93,0,0,1-.08.78,2.5,2.5,0,0,1-.95,1,2.36,2.36,0,0,1-1,.37A0.85,0.85,0,0,1,20,6.31a1.83,1.83,0,0,1-.41-0.91C19.52,5.23,19.51,5.06,19.49,4.88Z" transform="translate(-0.56 -1.96)"/><path class="cls-1" d="M10.3,7.9a2.83,2.83,0,0,1-1.61-.6A1.21,1.21,0,0,1,8.2,6.58a1.32,1.32,0,0,1,.07-0.65A2,2,0,0,1,9.44,4.59a1.2,1.2,0,0,1,1.43.32,2.39,2.39,0,0,1,.59,1.19,2.38,2.38,0,0,1,0,.88A1,1,0,0,1,10.3,7.9Z" transform="translate(-0.56 -1.96)"/></svg>